<?xml version="1.0" standalone="no"?> <!DOCTYPE svg PUBLIC "-//W3C//DTD SVG 1.0//EN" "http://www.w3.org/TR/2001/REC-SVG-20010904/DTD/svg10.dtd" > <svg xmlns="http://www.w3.org/2000/svg" width="100%" height="100%">
<defs >
<font id="colabthi" horiz-adv-x="769" ><font-face
    font-family="Colaborate-Thin"
    units-per-em="2048"
    panose-1="2 0 5 6 5 0 0 2 0 4"
    ascent="1710"
    descent="-403"
    alphabetic="0" />
<missing-glyph horiz-adv-x="2048" />
<glyph unicode=" " glyph-name="space" horiz-adv-x="471" />
<glyph unicode="!" glyph-name="exclam" horiz-adv-x="471" d="M279 336H193V1325H279V336ZM297 0H176V145H297V0Z" />
<glyph unicode="&quot;" glyph-name="quotedbl" horiz-adv-x="696" d="M532 1325L516 881H449L432 1325H532ZM264 1325L248 881H180L164 1325H264Z" />
<glyph unicode="#" glyph-name="numbersign" horiz-adv-x="942" d="M920 817H709L651 492H840V412H637L565 0H475L547 412H289L217 0H127L199 412H23V492H213L270 817H102V897H285L360 1325H451L375 897H633L709 1325H799L723 897H920V817ZM618 817H360L303 492H561L618
817Z" />
<glyph unicode="$" glyph-name="dollar" horiz-adv-x="942" d="M846 344Q846 257 820 189T748 78T643 10T514 -27V-201H424V-33Q369 -33 309 -24T207 -5T96 25L133 111Q203 84 234 74T317 53T424 43V653Q380 670 354 680T288 710T226 747T175 792T132 850T107
920T96 1008Q96 1163 185 1245T424 1341V1528H514V1346Q654 1341 793 1294L756 1208Q752 1210 731 1219T704 1231T679 1240T650 1250T623 1257T590 1264T555 1268T514 1270V727Q573 705 612 687T700 637T777 567T826 472T846 344ZM424 762V1266Q195 1233 195 1008Q195
958 212 919T263 850T334 802T424 762ZM748 340Q748 398 731 443T678 520T605 575T514 618V55Q560 66 599 86T673 140T728 224T748 340Z" />
<glyph unicode="%" glyph-name="percent" horiz-adv-x="1413" d="M1292 342Q1292 293 1290 258T1280 176T1256 99T1213 38T1146 -5T1049 -20Q1002 -20 965 -8T903 23T861 72T834 130T819 199T812 270T811 342Q811 692 1051 692Q1098 692 1135 681T1197 652T1240
606T1268 549T1283 483T1290 414T1292 342ZM602 995Q602 946 600 911T590 829T566 752T523 691T455 648T358 633Q304 633 263 648T196 692T155 752T132 830T123 911T121 995Q121 1346 360 1346Q407 1346 444 1335T507 1306T550 1259T578 1203T593 1136T600 1067T602
995ZM1120 1288L379 0H285L1026 1288H1120ZM1225 342Q1225 380 1224 404T1220 463T1210 520T1190 567T1159 606T1114 629T1051 639Q881 639 881 342Q881 300 883 268T890 197T907 132T937 81T983 45T1049 33Q1089 33 1119 44T1168 79T1199 129T1216 194T1223 265T1225
342ZM535 995Q535 1040 534 1068T527 1136T511 1199T481 1246T432 1281T360 1292Q190 1292 190 995Q190 944 192 906T205 824T232 752T282 705T358 686Q406 686 440 704T492 749T520 821T532 903T535 995Z" />
<glyph unicode="&amp;" glyph-name="ampersand" horiz-adv-x="942" d="M848 0H780L756 119Q659 -27 494 -27Q314 -27 204 71T94 346Q94 611 348 731Q338 739 307 760T259 795T214 834T173 883T147 941T135 1014Q135 1087 150 1146T200 1252T294 1326T436 1352Q737
1352 737 1038Q737 917 674 844T453 702Q402 681 367 662T294 613T235 549T199 464T184 350Q184 295 201 243T253 145T350 70T494 41Q564 41 636 91T748 213V508H520V575H831V287Q831 234 834 180T842 68T848 0ZM647 1040Q647 1161 598 1222T430 1284Q322 1284
275 1215T227 1016Q227 985 238 955T261 904T300 859T340 824T385 791T420 766Q466 785 501 805T572 858T627 936T647 1040Z" />
<glyph unicode="&apos;" glyph-name="quotesingle" horiz-adv-x="471" d="M287 1325L270 881H203L186 1325H287Z" />
<glyph unicode="(" glyph-name="parenleft" horiz-adv-x="522" d="M416 -262H338Q210 -40 166 123T121 520Q121 787 166 952T328 1325H406Q298 1126 259 954T219 520Q219 291 258 123T416 -262Z" />
<glyph unicode=")" glyph-name="parenright" horiz-adv-x="522" d="M401 520Q401 286 357 123T184 -262H106Q224 -46 263 122T303 520Q303 782 264 954T117 1325H195Q273 1185 314 1082T378 842T401 520Z" />
<glyph unicode="*" glyph-name="asterisk" horiz-adv-x="757" d="M727 1034L442 965L440 954L625 719L547 664L387 909H375L213 664L133 721L319 954L315 965L31 1036L63 1133L336 1028L346 1036L332 1325H430L414 1032L424 1026L694 1130L727 1034Z" />
<glyph unicode="+" glyph-name="plus" horiz-adv-x="942" d="M887 391H518V0H424V391H55V473H424V862H518V473H887V391Z" />
<glyph unicode="," glyph-name="comma" horiz-adv-x="471" d="M293 154L127 -211H57L180 154H293Z" />
<glyph unicode="-" glyph-name="hyphen" horiz-adv-x="645" d="M584 475H61V557H584V475Z" />
<glyph unicode="." glyph-name="period" horiz-adv-x="471" d="M293 0H178V141H293V0Z" />
<glyph unicode="/" glyph-name="slash" horiz-adv-x="471" d="M500 1348L61 -20H-29L410 1348H500Z" />
<glyph unicode="0" glyph-name="zero" horiz-adv-x="942" d="M866 689T866 631T865 530T860 428T847 327T825 233T790 147T739 76T670 20T581 -15T467 -29Q406 -29 355 -16T267 20T199 77T150 149T116 236T94 329T82 430T77 531T76 631Q76 697 79 753T93 877T121
997T168 1102T239 1189T338 1245T469 1266Q530 1266 581 1254T670 1221T738 1167T789 1100T823 1019T846 929T859 831T865 732ZM768 631Q768 703 767 752T759 865T740 972T706 1060T652 1131T575 1175T469 1192Q406 1192 357 1168T276 1100T224 1003T192 883T178
757T174 631Q174 560 176 507T184 389T203 278T237 186T289 110T365 63T467 45Q669 45 732 243Q767 353 768 588Q768 604 768 631Z" />
<glyph unicode="1" glyph-name="one" horiz-adv-x="942" d="M596 -2H502V1120L264 911L227 997L510 1243H596V-2Z" />
<glyph unicode="2" glyph-name="two" horiz-adv-x="942" d="M831 0H104L68 82Q103 119 178 191T316 324T454 467T582 620T669 768T705 911Q705 1057 636 1125T422 1194Q403 1194 386 1193T350 1188T319 1182T285 1173T256 1162T224 1149T194 1136T160 1120T127
1104L90 1190Q258 1268 426 1268Q602 1268 702 1182T803 920Q803 846 770 764T687 611T565 459T431 320T295 190T182 80H831V0Z" />
<glyph unicode="3" glyph-name="three" horiz-adv-x="942" d="M786 311Q786 237 764 179T704 82T613 18T502 -18T375 -29Q268 -29 212 -21T68 18L104 104Q122 98 155 86T206 69T251 57T311 48T381 45Q440 45 491 58T588 99T661 182T688 313Q688 386 668 440T613
528T528 582T421 610T295 618V688Q376 688 436 699T549 739T629 820T657 952Q657 1023 638 1072T581 1147T501 1183T401 1194Q355 1194 303 1179T222 1151T127 1106L90 1192Q242 1268 401 1268Q565 1268 660 1191T756 956Q756 818 681 745T485 655Q531 648 572
634T653 593T721 529T768 436T786 311Z" />
<glyph unicode="4" glyph-name="four" horiz-adv-x="942" d="M901 350H705V0H610V350H115L78 436L627 1243H705V426H901V350ZM610 426V1098L156 426H610Z" />
<glyph unicode="5" glyph-name="five" horiz-adv-x="942" d="M842 385Q842 189 734 80T430 -29Q329 -29 263 -21T117 14L154 100Q291 45 432 45Q582 45 665 134T748 389Q748 542 677 628T483 715Q383 715 227 637L141 674V1243H791V1169H236V737Q255 741 299 755T386
779T481 788Q661 788 751 680T842 385Z" />
<glyph unicode="6" glyph-name="six" horiz-adv-x="942" d="M852 401Q852 289 811 193T685 34T487 -29Q406 -29 343 -6T237 62T165 161T121 288T99 429T92 580Q92 680 109 777T165 963T256 1120T388 1228T559 1268Q671 1268 797 1235L760 1149Q754 1151 736 1158T712
1167T691 1174T668 1181T646 1186T622 1191T597 1193T569 1194Q394 1194 286 1025T178 575Q226 678 305 743T487 809Q662 809 757 697T852 401ZM754 401Q754 560 691 647T492 735Q440 735 394 718T317 676T260 617T221 557T197 504Q197 255 267 150T489 45Q610
45 682 142T754 401Z" />
<glyph unicode="7" glyph-name="seven" horiz-adv-x="942" d="M817 1157L338 0H227L733 1165H80V1243H780L817 1157Z" />
<glyph unicode="8" glyph-name="eight" horiz-adv-x="942" d="M868 297Q868 216 841 155T773 60T675 5T569 -22T465 -29Q413 -29 364 -22T261 8T166 65T100 160T74 297Q74 428 155 518T375 655Q372 656 349 667T312 686T271 710T226 742T185 781T150 829T127 886T117
954Q117 1109 214 1188T475 1268Q838 1268 838 956Q838 902 816 854T762 772T691 713T620 673T563 653Q868 549 868 297ZM745 956Q745 1087 675 1141T475 1196Q209 1196 209 954Q209 903 235 857T302 778T385 723T467 688Q500 695 536 710T610 750T677 805T726
874T745 956ZM774 297Q774 525 471 616Q168 531 168 297Q168 171 250 107T465 43Q528 43 582 57T680 100T749 179T774 297Z" />
<glyph unicode="9" glyph-name="nine" horiz-adv-x="942" d="M850 659Q850 559 833 462T777 276T686 119T554 11T383 -29Q271 -29 145 4L182 90Q191 87 213 79T245 67T273 59T304 51T335 47T373 45Q548 45 656 214T764 664Q717 561 638 496T455 430Q280 430 185
542T90 838Q90 950 131 1046T257 1205T455 1268Q536 1268 599 1245T705 1177T777 1078T821 951T843 810T850 659ZM745 735Q745 984 675 1089T453 1194Q332 1194 260 1097T188 838Q188 504 451 504Q503 504 549 521T625 564T682 622T721 682T745 735Z" />
<glyph unicode=":" glyph-name="colon" horiz-adv-x="471" d="M293 784H178V926H293V784ZM293 0H178V141H293V0Z" />
<glyph unicode=";" glyph-name="semicolon" horiz-adv-x="471" d="M285 784H170V926H285V784ZM293 154L127 -211H57L170 154H293Z" />
<glyph unicode="&lt;" glyph-name="less" horiz-adv-x="942" d="M881 25L61 391V510L881 877V776L150 449L881 125V25Z" />
<glyph unicode="=" glyph-name="equal" horiz-adv-x="942" d="M881 582H61V672H881V582ZM881 229H61V317H881V229Z" />
<glyph unicode="&gt;" glyph-name="greater" horiz-adv-x="942" d="M881 391L61 25V125L793 453L61 776V877L881 510V391Z" />
<glyph unicode="?" glyph-name="question" horiz-adv-x="788" d="M725 1044Q725 977 691 920T609 822T513 739T431 643T397 524V324H303V535Q303 600 327 655T388 745T467 816T546 882T606 954T631 1044Q631 1165 571 1217T383 1270Q285 1270 141 1198L104 1284Q282
1346 383 1346Q461 1346 521 1331T628 1282T700 1188T725 1044ZM412 0H291V145H412V0Z" />
<glyph unicode="@" glyph-name="at" horiz-adv-x="1658" d="M1489 782Q1489 652 1446 551T1324 385T1141 289T909 256Q733 256 616 361T498 653Q498 816 606 932T881 1049Q952 1049 1032 1018V580L1118 594L1149 520L956 489V971Q926 981 883 981Q747 981 668
894T588 659Q588 495 674 410T913 324Q1139 324 1269 438T1399 780Q1399 905 1358 1002T1246 1159T1084 1248T889 1278Q705 1278 565 1210T343 999T260 655Q260 503 306 384T436 189T632 74T881 35Q1011 35 1101 51T1315 113L1346 39Q1156 -33 874 -33Q547 -33
359 151T170 655Q170 815 224 946T374 1164T602 1298T889 1346Q982 1346 1069 1324T1232 1255T1366 1142T1456 984T1489 782Z" />
<glyph unicode="A" glyph-name="A" horiz-adv-x="1245" d="M1174 0H1067L913 416H332L168 0H72L610 1325H674L1174 0ZM889 487L637 1186L360 487H889Z" />
<glyph unicode="B" glyph-name="B" horiz-adv-x="1140" d="M1018 371Q1018 283 995 217T934 110T838 44T718 10T578 0H205V1325H510Q595 1325 658 1318T780 1288T875 1229T934 1132T956 987Q956 886 899 809T745 694Q873 664 945 583T1018 371ZM858 985Q858 1054
843 1102T803 1179T731 1223T635 1244T510 1249H299V719H539Q681 719 769 783T858 985ZM918 371Q918 439 898 489T846 569T763 616T661 639T543 645H299V76H565Q622 76 665 80T750 95T821 128T873 181T907 260T918 371Z" />
<glyph unicode="C" glyph-name="C" horiz-adv-x="1079" d="M993 25Q829 -33 657 -33Q544 -33 455 1T306 97T207 246T151 437T133 662Q133 777 149 875T204 1061T303 1211T456 1309T670 1346Q834 1346 979 1298L942 1212Q807 1270 670 1270Q231 1270 231 664Q231
561 243 474T285 305T363 168T486 77T657 43Q788 43 956 111L993 25Z" />
<glyph unicode="D" glyph-name="D" horiz-adv-x="1239" d="M1106 668Q1106 309 960 155T473 0H205V1325H473Q652 1325 771 1290T966 1174T1074 972T1106 668ZM1008 666Q1008 825 983 931T897 1110T732 1216T473 1249H299V76H492Q759 76 883 224T1008 666Z" />
<glyph unicode="E" glyph-name="E" horiz-adv-x="1050" d="M928 0H205V1325H909V1249H299V723H866V647H299V76H928V0Z" />
<glyph unicode="F" glyph-name="F" horiz-adv-x="1028" d="M909 1247H299V715H885V641H299V0H205V1325H909V1247Z" />
<glyph unicode="G" glyph-name="G" horiz-adv-x="1179" d="M1047 80Q961 39 915 20T801 -16T662 -33Q540 -33 446 5T294 108T199 264T148 453T133 664Q133 1346 680 1346Q793 1346 973 1298L936 1212Q803 1270 682 1270Q446 1270 339 1117T231 664Q231 561 242
476T282 308T359 169T485 78T668 43Q782 43 961 139V551H668V627H1047V80Z" />
<glyph unicode="H" glyph-name="H" horiz-adv-x="1277" d="M1073 0H979V645H299V0H205V1325H299V723H979V1325H1073V0Z" />
<glyph unicode="I" glyph-name="I" horiz-adv-x="454" d="M274 0H180V1325H274V0Z" />
<glyph unicode="J" glyph-name="J" horiz-adv-x="768" d="M563 418Q563 352 553 296T527 197T486 118T434 56T373 10T307 -25T236 -50T166 -69T97 -84Q77 -88 68 -90L41 0Q57 3 90 9Q233 36 297 67Q450 143 467 342Q469 369 469 397V1325H563V418Z" />
<glyph unicode="K" glyph-name="K" horiz-adv-x="1132" d="M1098 0H971L299 657V0H205V1325H299V700L936 1325H1036L389 694L1098 0Z" />
<glyph unicode="L" glyph-name="L" horiz-adv-x="950" d="M932 0H205V1325H299V82H932V0Z" />
<glyph unicode="M" glyph-name="M" horiz-adv-x="1624" d="M1419 0H1329V1223L838 0H786L287 1223V0H205V1325H334L817 139L1300 1325H1419V0Z" />
<glyph unicode="N" glyph-name="N" horiz-adv-x="1325" d="M1120 0H989L287 1214V0H205V1325H332L1030 111V1325H1120V0Z" />
<glyph unicode="O" glyph-name="O" horiz-adv-x="1345" d="M1212 657Q1212 535 1195 434T1138 245T1037 97T885 2T676 -33Q553 -33 459 1T303 96T204 245T149 434T133 657Q133 810 162 931T253 1148T423 1294T678 1346Q800 1346 893 1312T1046 1218T1143 1069T1196
881T1212 657ZM1114 657Q1114 769 1103 857T1061 1024T983 1156T857 1239T676 1270T495 1240T367 1157T287 1025T244 857T231 657Q231 548 243 461T286 293T367 160T495 75T676 43T856 74T982 159T1061 293T1102 460T1114 657Z" />
<glyph unicode="P" glyph-name="P" horiz-adv-x="1089" d="M975 958Q975 765 874 673T569 580H299V0H205V1325H547Q758 1325 866 1239T975 958ZM877 958Q877 1122 796 1185T543 1249H299V655H553Q722 655 799 721T877 958Z" />
<glyph unicode="Q" glyph-name="Q" horiz-adv-x="1345" d="M1212 657Q1212 535 1195 434T1138 245T1037 97T885 2T676 -33Q553 -33 459 1T303 96T204 245T149 434T133 657Q133 810 162 931T253 1148T423 1294T678 1346Q800 1346 893 1312T1046 1218T1143 1069T1196
881T1212 657ZM1102 -111L1065 -199L643 -137L680 -76L1102 -111ZM1114 657Q1114 769 1103 857T1061 1024T983 1156T857 1239T676 1270T495 1240T367 1157T287 1025T244 857T231 657Q231 548 243 461T286 293T367 160T495 75T676 43T856 74T982 159T1061 293T1102
460T1114 657Z" />
<glyph unicode="R" glyph-name="R" horiz-adv-x="1142" d="M1049 0H934L479 612H299V0H205V1325H578Q661 1325 731 1307T859 1251T951 1145T985 983Q985 920 973 867T932 767T859 686T745 634T588 614L1049 0ZM887 983Q887 1116 810 1182T588 1249H299V688H590Q752
688 819 767T887 983Z" />
<glyph unicode="S" glyph-name="S" horiz-adv-x="1077" d="M928 338Q928 235 893 161T794 46T653 -14T479 -33Q354 -33 143 25L180 111Q362 43 481 43Q531 43 576 50T669 78T751 130T807 214T829 334Q829 375 819 410T794 471T752 521T700 561T637 594T571 623T498
649Q452 665 423 676T352 707T284 745T228 792T182 850T154 922T143 1012Q143 1100 176 1166T270 1270T408 1327T580 1346Q716 1346 887 1288L850 1202Q798 1224 769 1235T683 1258T567 1270Q497 1270 441 1257T338 1215T267 1135T242 1012Q242 966 259 928T300
865T366 815T444 777T535 743Q586 725 617 714T694 681T769 639T831 588T883 523T915 441T928 338Z" />
<glyph unicode="T" glyph-name="T" horiz-adv-x="1019" d="M963 1247H557V0H463V1247H57V1325H963V1247Z" />
<glyph unicode="U" glyph-name="U" horiz-adv-x="1341" d="M1137 485Q1137 219 1029 93T684 -33Q425 -33 315 92T205 489V1325H299V510Q299 329 336 229T456 86T684 43Q881 43 961 148T1042 510V1325H1137V485Z" />
<glyph unicode="V" glyph-name="V" horiz-adv-x="1187" d="M1124 1325L643 0H565L63 1325H168L608 143L1026 1325H1124Z" />
<glyph unicode="W" glyph-name="W" horiz-adv-x="1708" d="M1632 1325L1272 0H1174L854 1118L530 0H428L76 1325H174L487 139L811 1270H909L1229 135L1544 1325H1632Z" />
<glyph unicode="X" glyph-name="X" horiz-adv-x="1128" d="M1049 0H930L561 616L170 0H68L510 684L123 1325H233L569 766L920 1325H1022L614 698L1049 0Z" />
<glyph unicode="Y" glyph-name="Y" horiz-adv-x="1089" d="M1055 1325L604 596V0H510V588L35 1325H141L561 680L961 1325H1055Z" />
<glyph unicode="Z" glyph-name="Z" horiz-adv-x="1079" d="M985 1239L195 78H969V0H131L94 86L883 1247H170V1325H948L985 1239Z" />
<glyph unicode="[" glyph-name="bracketleft" horiz-adv-x="522" d="M428 -260H172V1384H428V1315H266V-184H428V-260Z" />
<glyph unicode="\" glyph-name="backslash" horiz-adv-x="471" d="M500 -20H410L-29 1348H61L500 -20Z" />
<glyph unicode="]" glyph-name="bracketright" horiz-adv-x="522" d="M350 -256H94V-180H256V1319H94V1389H350V-256Z" />
<glyph unicode="^" glyph-name="asciicircum" horiz-adv-x="942" d="M872 551H768L471 1169L172 551H76L446 1325H494L872 551Z" />
<glyph unicode="_" glyph-name="underscore" horiz-adv-x="1024" d="M1026 -195H-2V-127H1026V-195Z" />
<glyph unicode="`" glyph-name="grave" horiz-adv-x="385" d="M346 1085H266L39 1325H150L346 1085Z" />
<glyph unicode="a" glyph-name="a" horiz-adv-x="935" d="M801 0H733Q732 11 718 56T700 119Q663 57 592 19T428 -20Q364 -20 307 -5T203 41T128 125T100 246Q100 306 113 352T160 438T249 504T392 544T596 559H692V645Q692 765 641 827T477 889Q389 889 321 869T172
809L141 883Q204 907 244 920T347 944T475 956Q617 956 696 881T776 655V287Q776 229 801 0ZM694 197V489H625Q459 489 364 464T230 388T190 248Q190 156 252 102T428 47Q518 47 589 87T694 197Z" />
<glyph unicode="b" glyph-name="b" horiz-adv-x="964" d="M864 473Q864 390 852 319T813 184T745 77T642 6T502 -20Q420 -20 343 20T225 119L199 0H131Q147 159 147 287V1346H231V788Q266 851 341 903T512 956Q605 956 674 918T784 811T844 659T864 473ZM774 469Q774
682 702 785T506 889Q455 889 410 871T335 829T282 772T246 719T227 678V203Q323 47 481 47Q774 47 774 469Z" />
<glyph unicode="c" glyph-name="c" horiz-adv-x="849" d="M768 39Q717 14 632 -3T489 -20Q290 -20 195 107T100 461Q100 956 496 956Q554 956 630 938T764 897L733 823Q679 850 612 869T494 889Q190 889 190 461Q190 47 492 47Q541 47 610 65T737 113L768 39Z" />
<glyph unicode="d" glyph-name="d" horiz-adv-x="964" d="M834 0H766L739 119Q699 61 624 21T467 -20H463Q366 -19 294 20T181 128T120 282T100 473Q100 608 139 715T262 889T459 956Q557 956 626 905T733 788V1346H817V287Q817 156 834 0ZM737 203V678Q727 706
710 735T662 803T579 865T467 889Q338 889 264 784T190 469Q190 47 483 47Q560 47 625 87T737 203Z" />
<glyph unicode="e" glyph-name="e" horiz-adv-x="944" d="M838 449H193Q193 47 489 47Q565 47 631 68T778 131L803 55Q646 -20 473 -20Q374 -20 301 17T184 122T121 274T100 459Q100 528 110 594T148 727T215 844T321 925T469 956Q557 956 623 930T730 859T795
747T829 609T838 449ZM756 516Q756 704 688 796T469 889Q338 889 269 791T190 516H756Z" />
<glyph unicode="f" glyph-name="f" horiz-adv-x="481" d="M522 1303Q444 1295 393 1276T315 1225T280 1158T270 1073V936H463V868H270V0H186V868H31V936H186V1067Q186 1205 266 1284T502 1376L522 1303Z" />
<glyph unicode="g" glyph-name="g" horiz-adv-x="964" d="M899 -139Q899 -225 844 -286T698 -375T494 -403Q275 -403 178 -337T80 -147Q80 -105 100 -69T153 -7T218 34T285 57Q154 111 154 205Q154 229 160 249T182 290T205 319T236 350Q235 351 225 362T210 379T194
399T178 423T163 450T148 484T138 521T130 565T127 614Q127 651 135 692T168 781T229 867T330 930T477 956Q579 956 633 930Q883 950 889 950L858 877H715Q761 844 797 774T834 621Q834 550 815 489T756 376T646 294T481 264Q436 264 375 279T289 311Q236 256 236
211Q236 179 255 160T335 124T514 94Q626 82 704 59T824 4T882 -63T899 -139ZM743 616Q743 747 675 818T481 889Q409 889 356 865T274 799T231 710T217 610Q217 552 232 504T277 416T360 354T483 332Q619 332 681 410T743 616ZM809 -139Q809 -104 792 -79T743 -37T654
-6T531 15T365 33Q272 14 221 -37T170 -147Q170 -336 494 -336Q652 -336 730 -283T809 -139Z" />
<glyph unicode="h" glyph-name="h" horiz-adv-x="960" d="M813 0H729V561Q729 640 719 695T685 797T613 866T494 889Q396 889 322 818T229 678V0H147V1346H231V788Q266 855 343 905T508 956Q594 956 656 927T751 847T798 737T813 606V0Z" />
<glyph unicode="i" glyph-name="i" horiz-adv-x="385" d="M242 1186H143V1325H242V1186ZM236 0H152V936H236V0Z" />
<glyph unicode="j" glyph-name="j" horiz-adv-x="374" d="M231 1186H133V1325H231V1186ZM225 12Q225 -111 168 -181T-25 -287L-49 -211Q58 -188 99 -143T141 -6V936H225V12Z" />
<glyph unicode="k" glyph-name="k" horiz-adv-x="856" d="M819 0H713L231 500V0H147V1346H231V543L674 936H770L303 530L819 0Z" />
<glyph unicode="l" glyph-name="l" horiz-adv-x="378" d="M231 0H147V1346H231V0Z" />
<glyph unicode="m" glyph-name="m" horiz-adv-x="1536" d="M1389 0H1305V594Q1305 641 1301 678T1281 757T1241 825T1170 871T1063 889Q978 889 907 821T805 670V0H721V594Q721 731 661 810T487 889Q402 889 331 824T231 680V0H147V721Q147 756 145 790T138 871T131
936H199L227 788Q248 819 268 842T322 895T401 940T500 956Q617 956 685 898T780 750Q806 791 828 820T887 884T970 937T1071 956Q1229 956 1309 869T1389 598V0Z" />
<glyph unicode="n" glyph-name="n" horiz-adv-x="960" d="M813 0H729V573Q729 629 724 671T704 757T664 827T595 872T492 889Q429 889 372 853T281 772T231 680V0H147V737Q147 780 140 842T131 936H199L225 788Q226 789 238 805T255 828T275 852T301 877T329 900T365
923T405 939T452 952T504 956Q670 956 741 860T813 590V0Z" />
<glyph unicode="o" glyph-name="o" horiz-adv-x="976" d="M877 473Q877 -20 489 -20Q100 -20 100 473Q100 575 119 658T182 810T303 917T489 956Q877 956 877 473ZM786 473Q786 565 773 635T727 765T635 857T489 889Q424 889 373 868T287 809T231 718T200 605T190
473Q190 400 198 340T226 225T280 131T366 70T489 47Q561 47 615 70T701 130T752 225T779 340T786 473Z" />
<glyph unicode="p" glyph-name="p" horiz-adv-x="964" d="M864 463Q864 328 826 221T707 47T512 -20Q417 -20 345 18T231 115V-369H147V659Q147 808 131 936H199L229 786Q271 856 341 906T506 956Q585 956 647 930T750 859T816 750T853 616T864 463ZM774 467Q774
889 489 889Q399 889 326 823T229 678V199Q230 197 252 171T283 135T318 105T367 74T424 56T500 47Q626 47 700 153T774 467Z" />
<glyph unicode="q" glyph-name="q" horiz-adv-x="964" d="M834 936Q817 810 817 659V-369H733V115Q691 57 620 19T453 -20Q336 -20 255 47T137 221T100 463Q100 565 121 652T185 808T299 916T463 956Q547 956 621 905T735 786L766 936H834ZM735 199V678Q712 756
638 822T473 889Q331 889 261 773T190 467Q190 259 264 153T465 47Q507 47 543 55T602 74T648 104T683 136T712 170T735 199Z" />
<glyph unicode="r" glyph-name="r" horiz-adv-x="655" d="M629 911L598 838Q530 889 446 889Q417 889 390 875T345 844T305 794T275 745T249 693T231 655V0H147V727Q147 768 144 807T137 885T131 936H199L225 760Q245 798 261 823T308 884T377 937T461 956Q552
956 629 911Z" />
<glyph unicode="s" glyph-name="s" horiz-adv-x="811" d="M711 250Q711 121 621 51T393 -20Q206 -20 92 37L123 111Q215 71 265 59T401 47Q501 47 561 99T621 248Q621 272 617 292T601 330T578 360T546 385T511 405T469 423T425 438T377 453Q325 469 292 481T217
514T150 560T108 620T90 702Q90 833 183 894T430 956Q486 956 543 942T694 895L664 821Q655 825 623 839T582 856T547 869T506 880T465 886T412 889Q310 889 245 847T180 709Q180 679 192 654T222 613T271 582T327 558T395 537Q529 497 579 469Q708 392 711 250Z"
/>
<glyph unicode="t" glyph-name="t" horiz-adv-x="538" d="M508 -10L485 -88Q327 -58 250 18T172 225V868H31V936H172V1169H256V936H469V868H256V225Q256 124 315 68T508 -10Z" />
<glyph unicode="u" glyph-name="u" horiz-adv-x="946" d="M815 0H748L721 147Q720 145 702 120T673 83T637 48T586 12T523 -10T440 -20Q282 -20 215 76T147 346V936H231V362Q231 306 235 264T255 179T294 109T362 64T463 47Q554 47 621 112T715 256V936H799V199Q799
156 806 94T815 0Z" />
<glyph unicode="v" glyph-name="v" horiz-adv-x="952" d="M866 936L508 0H449L86 936H176L483 125L784 936H866Z" />
<glyph unicode="w" glyph-name="w" horiz-adv-x="1368" d="M1282 936L958 0H881L674 702L455 0H373L86 936H174L420 111L647 842H717L926 117L1202 936H1282Z" />
<glyph unicode="x" glyph-name="x" horiz-adv-x="876" d="M823 0H711L438 416L147 0H53L389 473L76 936H184L446 545L715 936H807L489 487L823 0Z" />
<glyph unicode="y" glyph-name="y" horiz-adv-x="950" d="M864 936L473 -150Q435 -254 386 -301T223 -389L199 -311Q343 -272 379 -178L461 39L86 936L176 938L504 135L782 936H864Z" />
<glyph unicode="z" glyph-name="z" horiz-adv-x="802" d="M717 862L178 68H696V0H117L86 74L627 868H127V936H686L717 862Z" />
<glyph unicode="{" glyph-name="braceleft" horiz-adv-x="696" d="M606 -242Q518 -240 455 -214T358 -144T302 -47T274 68T262 189T250 305T229 404T182 474T98 506V582Q148 584 179 609T224 677T244 775T254 890T266 1010T295 1126T352 1225T452 1295T606 1325V1249Q511
1249 451 1217T367 1131T334 1011T322 873T311 737T273 620T186 541Q232 524 261 489T302 410T321 312T330 203T338 95T359 -6T402 -89T481 -145T606 -166V-242Z" />
<glyph unicode="|" glyph-name="bar" horiz-adv-x="471" d="M276 -340H195V1438H276V-340Z" />
<glyph unicode="}" glyph-name="braceright" horiz-adv-x="696" d="M598 506Q547 502 515 475T469 404T447 306T436 190T423 69T395 -46T340 -144T242 -213T90 -242V-166Q183 -166 241 -133T322 -44T355 79T368 219T380 354T420 469T510 541Q454 566 424 619T385
737T375 872T363 1010T329 1130T245 1216T90 1249V1325Q179 1322 244 1295T344 1225T400 1127T429 1011T441 890T452 775T472 678T517 610T598 582V506Z" />
<glyph unicode="~" glyph-name="asciitilde" horiz-adv-x="942" d="M893 510Q893 416 826 366T672 315Q620 315 561 338T457 390T359 441T266 465Q199 465 164 428T129 322L49 358Q49 455 111 504T266 553Q313 553 370 530T471 480T571 429T670 406Q736 406 774
445T813 547L893 510Z" />
</font>
</defs>
</svg>
